<svg xmlns="http://www.w3.org/2000/svg" viewBox="0 0 48 48"><g stroke-width="2.2" stroke-linejoin="round" stroke-linecap="round"><ellipse cx="24" cy="44" rx="8" ry="2.8" fill="#F5B82E" opacity="0.9"/><path d="M24 45C14.5 34 8.5 27 8.5 19a15.5 15.5 0 0 1 31 0c0 8-6 15-15.5 26Z" fill="#3E9A4A"/><path d="M24 45c9.5-11 15.5-18 15.5-26a15.5 15.5 0 0 0-6-12.2C36 18 31 30 24 45Z" fill="#114B2F" opacity="0.4"/><path d="M12.1 16.9A12.1 12.1 0 0 1 19.9 7.6A1.5 1.5 0 0 1 20.9 10.6A9 9 0 0 0 15.1 17.4A1.5 1.5 0 0 1 12.1 16.9Z" fill="#7CC84A"/><path d="M24 45C14.5 34 8.5 27 8.5 19a15.5 15.5 0 0 1 31 0c0 8-6 15-15.5 26Z" fill="none" stroke="#0E3B2A"/><circle cx="24" cy="19" r="6.3" fill="#FFFFFF" stroke="#0E3B2A"/></g></svg>
