<svg xmlns="http://www.w3.org/2000/svg" viewBox="0 0 48 48"><g stroke-width="2.2" stroke-linejoin="round" stroke-linecap="round"><circle cx="24" cy="25.6" r="20.6" fill="#24478A" stroke="#0E3B2A"/><circle cx="24" cy="22.6" r="20.6" fill="#2F80D8"/><path d="M10 37.7A20.6 20.6 0 0 0 38 37.7Q24 41.6 10 37.7Z" fill="#24478A" opacity="0.45"/><path d="M9.1 17.2A15.9 15.9 0 0 1 22.6 6.8A2.3 2.3 0 0 1 23 11.3A11.3 11.3 0 0 0 13.4 18.7A2.3 2.3 0 0 1 9.1 17.2Z" fill="#FFFFFF" opacity="0.55"/><circle cx="24" cy="22.6" r="20.6" fill="none" stroke="#0E3B2A"/><circle cx="24" cy="22.6" r="11.5" fill="#FFFFFF"/><path d="M15.7 30.6A11.5 11.5 0 0 0 32.3 30.6Q24 33.1 15.7 30.6Z" fill="#C9D2DB"/><circle cx="24" cy="22.6" r="11.5" fill="none" stroke="#0E3B2A"/></g></svg>
