<svg xmlns="http://www.w3.org/2000/svg" viewBox="0 0 48 48"><g stroke-width="2.2" stroke-linejoin="round" stroke-linecap="round"><path d="M11 29.5h26l-3.5 15h-19Z" fill="#F59A23"/><path d="M30 29.5h7l-3.5 15H27Z" fill="#C98A12" opacity="0.6"/><path d="M11 29.5h26l-3.5 15h-19Z" fill="none" stroke="#0E3B2A"/><rect x="8" y="24.5" width="32" height="7" rx="2.5" fill="#F5B82E"/><rect x="8" y="28.5" width="32" height="3" fill="#C98A12" opacity="0.5"/><rect x="11" y="26" width="10" height="1.8" rx="0.9" fill="#FFFFFF" opacity="0.7"/><rect x="8" y="24.5" width="32" height="7" rx="2.5" fill="none" stroke="#0E3B2A"/><path d="M24 25.5V15" fill="none" stroke="#0E3B2A" stroke-width="5.4"/><path d="M24 25.5V15" fill="none" stroke="#3E9A4A" stroke-width="2"/><path d="M24 17C17 18 12 14 11 7c7-1 12.5 3 13 10Z" fill="#7CC84A"/><path d="M24 17C17 18 12 14 11 7c5 2.5 9.5 6 13 10Z" fill="#3E9A4A" opacity="0.8"/><path d="M24 17C17 18 12 14 11 7c7-1 12.5 3 13 10Z" fill="none" stroke="#0E3B2A"/><path d="M24 15.5c.5-7 5.5-11 13-10.5-.5 7-6 11-13 10.5Z" fill="#7CC84A"/><path d="M24 15.5c.5-7 5.5-11 13-10.5-4 3.5-8.5 7-13 10.5Z" fill="#3E9A4A" opacity="0.8"/><path d="M24 15.5c.5-7 5.5-11 13-10.5-.5 7-6 11-13 10.5Z" fill="none" stroke="#0E3B2A"/></g></svg>
