<svg xmlns="http://www.w3.org/2000/svg" viewBox="0 0 96 96"><g fill="#FFFFFF" stroke="#FFFFFF" stroke-width="9" stroke-linejoin="round"><rect x="14" y="8" width="21" height="28" rx="3" transform="rotate(-14 24.5 22)"/><rect x="38" y="3" width="21" height="28" rx="3" transform="rotate(-2 48.5 17)"/><rect x="60" y="8" width="21" height="28" rx="3" transform="rotate(12 70.5 22)"/><rect x="18" y="32" width="66" height="56" rx="6"/><rect x="10" y="28" width="66" height="56" rx="6"/></g><g stroke="#0E3B2A" stroke-width="3.5" stroke-linejoin="round" stroke-linecap="round"><rect x="14" y="8" width="21" height="28" rx="3" transform="rotate(-14 24.5 22)" fill="#58B8E8"/><rect x="18" y="12" width="13" height="10" rx="2" fill="#AADCFC" stroke="none" transform="rotate(-14 24.5 22)"/><rect x="38" y="3" width="21" height="28" rx="3" transform="rotate(-2 48.5 17)" fill="#E8483A"/><rect x="42" y="7" width="13" height="10" rx="2" fill="#F58A6E" stroke="none" transform="rotate(-2 48.5 17)"/><rect x="60" y="8" width="21" height="28" rx="3" transform="rotate(12 70.5 22)" fill="#F5B82E"/><rect x="64" y="12" width="13" height="10" rx="2" fill="#F5C842" stroke="none" transform="rotate(12 70.5 22)"/><rect x="18" y="32" width="66" height="56" rx="6" fill="#FFF6DC"/><path d="M24 84H78M80 36V80" fill="none" stroke="#C9D2DB" stroke-width="2.5"/><rect x="10" y="28" width="66" height="56" rx="6" fill="#3E9A4A" stroke="none"/><rect x="10" y="28" width="12" height="56" rx="6" fill="#114B2F" stroke="none"/><rect x="26" y="32" width="44" height="4" rx="2" fill="#7CC84A" stroke="none"/><rect x="10" y="28" width="66" height="56" rx="6" fill="none"/><path d="M22 28V84" fill="none"/><circle cx="49" cy="58" r="16" fill="#114B2F" stroke="none"/><path d="M42.1 67.8 C38.9 56.8 46.4 48.1 55.9 48.2 C59.2 57.1 53.6 67.1 42.1 67.8 Z" fill="#F5B82E" stroke="none"/><path d="M42.1 67.8 C38.9 56.8 46.4 48.1 55.9 48.2 C49.8 52.7 44.3 60.6 42.1 67.8 Z" fill="#F5C842" stroke="none"/><path d="M42.1 67.8 C38.9 56.8 46.4 48.1 55.9 48.2 C59.2 57.1 53.6 67.1 42.1 67.8 Z" fill="none"/><path d="M40.4 70.3 L52.1 53.6" fill="none" stroke="#C98A12" stroke-width="2.5"/><path d="M64 28H76V40Z" fill="#F5B82E"/><path d="M64 84H76V72Z" fill="#F5B82E"/></g></svg>
