<svg xmlns="http://www.w3.org/2000/svg" viewBox="0 0 96 96" width="96" height="96" role="img">
<title>Dex — the field guide</title>
<defs><filter id="sticker" x="-20%" y="-20%" width="140%" height="140%">
  <feMorphology in="SourceAlpha" operator="dilate" radius="4" result="grow"/>
  <feFlood flood-color="#fff"/><feComposite in2="grow" operator="in" result="edge"/>
  <feMerge><feMergeNode in="edge"/><feMergeNode in="SourceGraphic"/></feMerge>
</filter></defs>
<g filter="url(#sticker)">

  <rect x="22" y="12" width="56" height="72" rx="8" fill="#FFF6DC" stroke="#0E3B2A" stroke-width="3.5" stroke-linejoin="round" stroke-linecap="round"/>
  <rect x="16" y="14" width="56" height="72" rx="8" fill="#3E9A4A" stroke="#0E3B2A" stroke-width="3.5" stroke-linejoin="round" stroke-linecap="round"/>
  <rect x="18" y="16" width="10" height="68" rx="5" fill="#2E7D3E"/>
  <rect x="16" y="14" width="56" height="72" rx="8" fill="none" stroke="#0E3B2A" stroke-width="3.5" stroke-linejoin="round" stroke-linecap="round"/>
  <rect x="58" y="14" width="7" height="72" fill="#A8582C" stroke="#0E3B2A" stroke-width="2.5"/>
  <circle cx="42" cy="50" r="15" fill="#C8E88C" stroke="#0E3B2A" stroke-width="2.5"/>
  <g transform="translate(32 58) rotate(-45)">
    <path d="M0,0 C6.16,-7.92 17.16,-7.13 22,0 C17.16,7.13 6.16,7.92 0,0 Z" fill="#7CC84A" stroke="#0E3B2A" stroke-width="2.2" stroke-linejoin="round"/>
    <path d="M2.64,1.1 C8.8,4.4 16.5,3.08 20.24,0 C15.4,5.28 6.6,5.72 2.64,1.1 Z" fill="#3E9A4A"/>
    <path d="M2.2,0 Q11,-0.66 18.92,0" fill="none" stroke="#0E3B2A" stroke-width="1.21" stroke-linecap="round"/>
  </g>
</g>
</svg>
