<svg xmlns="http://www.w3.org/2000/svg" viewBox="0 0 96 96" width="96" height="96" role="img">
<title>Go — the camera</title>
<defs><filter id="sticker" x="-20%" y="-20%" width="140%" height="140%">
  <feMorphology in="SourceAlpha" operator="dilate" radius="4" result="grow"/>
  <feFlood flood-color="#fff"/><feComposite in2="grow" operator="in" result="edge"/>
  <feMerge><feMergeNode in="edge"/><feMergeNode in="SourceGraphic"/></feMerge>
</filter></defs>
<g filter="url(#sticker)">

  <rect x="26" y="20" width="22" height="14" rx="4" fill="#11646C" stroke="#0E3B2A" stroke-width="3.5" stroke-linejoin="round" stroke-linecap="round"/>
  <rect x="12" y="28" width="72" height="50" rx="14" fill="#279CAD" stroke="#0E3B2A" stroke-width="3.5" stroke-linejoin="round" stroke-linecap="round"/>
  <path d="M16,62 L80,62 L80,66 A12,12 0 0 1 68,78 L28,78 A12,12 0 0 1 16,66 Z" fill="#11646C"/>
  <rect x="12" y="28" width="72" height="50" rx="14" fill="none" stroke="#0E3B2A" stroke-width="3.5" stroke-linejoin="round" stroke-linecap="round"/>
  <circle cx="48" cy="53" r="19" fill="#fff" stroke="#0E3B2A" stroke-width="3.5" stroke-linejoin="round" stroke-linecap="round"/>
  <circle cx="48" cy="53" r="13" fill="#58B8E8" stroke="#0E3B2A" stroke-width="2.5"/>
  <circle cx="48" cy="53" r="7" fill="#2F80D8"/>
  <circle cx="43" cy="48" r="3.5" fill="#fff"/>
  <rect x="66" y="35" width="10" height="7" rx="2" fill="#F5C842" stroke="#0E3B2A" stroke-width="2.5"/>
  <g transform="translate(80 30) rotate(-60)">
    <path d="M0,0 C5.6,-7.2 15.6,-6.48 20,0 C15.6,6.48 5.6,7.2 0,0 Z" fill="#7CC84A" stroke="#0E3B2A" stroke-width="2.5" stroke-linejoin="round"/>
    <path d="M2.4,1 C8,4 15,2.8 18.4,0 C14,4.8 6,5.2 2.4,1 Z" fill="#3E9A4A"/>
    <path d="M2,0 Q10,-0.6 17.2,0" fill="none" stroke="#0E3B2A" stroke-width="1.38" stroke-linecap="round"/>
  </g>
  <path transform="translate(20 18)" d="M0,-7 Q1.4,-1.4 7,0 Q1.4,1.4 0,7 Q-1.4,1.4 -7,0 Q-1.4,-1.4 0,-7 Z" fill="#F59A23"/>
</g>
</svg>
