<svg xmlns="http://www.w3.org/2000/svg" viewBox="0 0 96 96" width="96" height="96" role="img">
<title>A find on the map</title>
<defs><filter id="sticker" x="-20%" y="-20%" width="140%" height="140%">
  <feMorphology in="SourceAlpha" operator="dilate" radius="4" result="grow"/>
  <feFlood flood-color="#fff"/><feComposite in2="grow" operator="in" result="edge"/>
  <feMerge><feMergeNode in="edge"/><feMergeNode in="SourceGraphic"/></feMerge>
</filter></defs>
<g filter="url(#sticker)">

  <ellipse cx="48" cy="88" rx="14" ry="4" fill="#0E3B2A" opacity="0.25"/>
  <path d="M48,86 C48,86 18,58 18,38 C18,20 32,8 48,8 C64,8 78,20 78,38 C78,58 48,86 48,86 Z" fill="#7CC84A" stroke="#0E3B2A" stroke-width="3.5" stroke-linejoin="round" stroke-linecap="round"/>
  <path d="M48,86 C48,86 62,60 70,44 C74,34 72,24 66,18 C74,24 78,30 78,38 C78,58 48,86 48,86 Z" fill="#3E9A4A"/>
  <circle cx="48" cy="38" r="20" fill="#fff" stroke="#0E3B2A" stroke-width="3.5" stroke-linejoin="round" stroke-linecap="round"/>
  <g transform="translate(48 38) scale(0.95)">
  <rect x="-3" y="2" width="6" height="12" rx="2" fill="#A8582C" stroke="#0E3B2A" stroke-width="2.5"/>
  <circle cx="0" cy="-4" r="11" fill="#7CC84A" stroke="#0E3B2A" stroke-width="2.5"/>
  <path d="M-7,-2 A8,8 0 0 0 7,1" fill="none" stroke="#3E9A4A" stroke-width="3" stroke-linecap="round"/>
  <circle cx="-4" cy="-8" r="3" fill="#C8E88C"/>
</g>
</g>
</svg>
